<svg xmlns="http://www.w3.org/2000/svg" xmlns:xlink="http://www.w3.org/1999/xlink" width="500" height="500" viewBox="0 0 500 500">
  <defs>
    <linearGradient id="linear-gradient" x1="0.5" x2="0.5" y2="1" gradientUnits="objectBoundingBox">
      <stop offset="0" stop-color="#e2d37e"/>
      <stop offset="1" stop-color="#a17b30"/>
    </linearGradient>
    <linearGradient id="linear-gradient-2" x1="0.805" x2="0.139" y2="0.669" xlink:href="#linear-gradient"/>
    <clipPath id="clip-logo_4">
      <rect width="500" height="500"/>
    </clipPath>
  </defs>
  <g id="logo_4" data-name="logo – 4" clip-path="url(#clip-logo_4)">
    <circle id="Ellipse_206" data-name="Ellipse 206" cx="250" cy="250" r="250" stroke="rgba(0,0,0,0)" stroke-miterlimit="10" stroke-width="1" fill="url(#linear-gradient)"/>
    <circle id="Ellipse_207" data-name="Ellipse 207" cx="235" cy="235" r="235" transform="translate(15 15)"/>
    <g id="Ellipse_208" data-name="Ellipse 208" transform="translate(43 43)" fill="none" stroke="#bb9e4f" stroke-width="3">
      <circle cx="207" cy="207" r="207" stroke="none"/>
      <circle cx="207" cy="207" r="205.5" fill="none"/>
    </g>
    <g id="noun-pattern-2719636" transform="translate(19.515 89.51)">
      <path id="Path_6869" data-name="Path 6869" d="M487.124,63.5A75.627,75.627,0,0,1,380.172,170.452l5.807-5.807a67.413,67.413,0,0,0,95.335-95.338l5.807-5.807Z" transform="translate(-132.368 -27.284)" fill="url(#linear-gradient-2)"/>
      <path id="Path_6870" data-name="Path 6870" d="M484.514,81.117a61.326,61.326,0,0,1-86.728,86.728l5.807-5.807a53.113,53.113,0,0,0,75.114-75.114Z" transform="translate(-139.871 -34.788)" fill="url(#linear-gradient-2)"/>
      <path id="Path_6871" data-name="Path 6871" d="M481.9,98.754a47.016,47.016,0,0,1-66.49,66.49l5.807-5.807A38.8,38.8,0,1,0,476.1,104.562Z" transform="translate(-147.381 -42.302)" fill="url(#linear-gradient-2)"/>
      <path id="Path_6872" data-name="Path 6872" d="M479.3,116.37a32.7,32.7,0,1,1-46.23,46.256l5.807-5.807a24.5,24.5,0,0,0,34.667-34.642l5.769-5.807Z" transform="translate(-154.902 -49.806)" fill="url(#linear-gradient-2)"/>
      <path id="Path_6875" data-name="Path 6875" d="M240.4,277.349A75.627,75.627,0,0,1,347.357,170.4l-5.807,5.807a67.414,67.414,0,0,0-95.338,95.338Z" transform="translate(-63.392 -63.387)" fill="url(#linear-gradient-2)"/>
      <path id="Path_6876" data-name="Path 6876" d="M261.123,277.877a61.311,61.311,0,0,1,86.714-86.7l-5.807,5.807a53.108,53.108,0,0,0-75.113,75.1l-5.807,5.807Z" transform="translate(-74.003 -74.024)" fill="url(#linear-gradient-2)"/>
      <path id="Path_6877" data-name="Path 6877" d="M281.853,278.357a47.025,47.025,0,0,1,66.5-66.5l-5.807,5.807a38.793,38.793,0,1,0-54.862,54.862Z" transform="translate(-84.619 -84.617)" fill="url(#linear-gradient-2)"/>
      <path id="Path_6878" data-name="Path 6878" d="M302.6,278.833a32.708,32.708,0,0,1,46.256-46.256l-5.807,5.807a24.5,24.5,0,0,0-34.642,34.667L302.6,278.82Z" transform="translate(-95.244 -95.23)" fill="url(#linear-gradient-2)"/>
      <path id="Path_6881" data-name="Path 6881" d="M344.51,84.693a75.618,75.618,0,0,1,127.4-37.608l-5.807,5.807a67.426,67.426,0,0,0-95.338,0,66.353,66.353,0,0,0-11.576,15.435A67.139,67.139,0,0,0,352.519,86.4L344.5,84.693Z" transform="translate(-117.17 -10.857)" fill="url(#linear-gradient-2)"/>
      <path id="Path_6882" data-name="Path 6882" d="M369.61,96.541A61.327,61.327,0,0,1,472.524,67.812l-5.807,5.807a53.182,53.182,0,0,0-83.85,11.475,51.623,51.623,0,0,0-5.3,13.386l-7.96-1.924Z" transform="translate(-127.868 -21.47)" fill="url(#linear-gradient-2)"/>
      <path id="Path_6883" data-name="Path 6883" d="M393.66,110.864a47.015,47.015,0,0,1,78.97-22.326l-5.807,5.807a38.832,38.832,0,0,0-61.319,8.507,37.8,37.8,0,0,0-3.859,9.908Z" transform="translate(-138.113 -32.085)" fill="url(#linear-gradient-2)"/>
      <path id="Path_6884" data-name="Path 6884" d="M416.87,128.061a32.684,32.684,0,0,1,55.54-18.772l-5.807,5.769a24.522,24.522,0,0,0-34.642.013,23.73,23.73,0,0,0-4.648,6.444,24.354,24.354,0,0,0-2.318,7.6l-8.112-1.056Z" transform="translate(-148.001 -42.699)" fill="url(#linear-gradient-2)"/>
      <path id="Path_6887" data-name="Path 6887" d="M240.444,310.18A75.627,75.627,0,0,1,133.492,417.132l5.807-5.807A67.409,67.409,0,1,0,234.637,316l5.807-5.807Z" transform="translate(-27.282 -132.369)" fill="url(#linear-gradient-2)"/>
      <path id="Path_6888" data-name="Path 6888" d="M237.824,327.81A61.326,61.326,0,0,1,151.1,414.538l5.807-5.807a53.113,53.113,0,1,0,75.114-75.114Z" transform="translate(-34.782 -139.879)" fill="url(#linear-gradient-2)"/>
      <path id="Path_6889" data-name="Path 6889" d="M235.224,345.43a47.016,47.016,0,0,1-66.49,66.49l5.807-5.807a38.8,38.8,0,0,0,54.875-54.875Z" transform="translate(-42.295 -147.385)" fill="url(#linear-gradient-2)"/>
      <path id="Path_6890" data-name="Path 6890" d="M232.622,363.05a32.707,32.707,0,0,1-46.254,46.256l5.769-5.807A24.5,24.5,0,0,0,226.8,368.857l5.807-5.807Z" transform="translate(-49.807 -154.892)" fill="url(#linear-gradient-2)"/>
      <path id="Path_6893" data-name="Path 6893" d="M156.377,282.555A67.424,67.424,0,0,0,122.869,396.14l-5.807,5.807a75.6,75.6,0,0,1,37.606-127.4l1.706,8.023Z" transform="translate(-10.849 -117.188)" fill="url(#linear-gradient-2)"/>
      <path id="Path_6894" data-name="Path 6894" d="M168.452,307.573a52.7,52.7,0,0,0-13.386,5.285,53.161,53.161,0,0,0-11.475,83.863l-5.807,5.807a61.337,61.337,0,0,1,0-86.728,61.174,61.174,0,0,1,28.729-16.186l1.924,7.96Z" transform="translate(-21.461 -127.867)" fill="url(#linear-gradient-2)"/>
      <path id="Path_6895" data-name="Path 6895" d="M182.736,331.674a38.513,38.513,0,0,0-9.922,3.845,39.155,39.155,0,0,0-8.493,6.458,38.785,38.785,0,0,0,0,54.875l-5.807,5.807a46.989,46.989,0,0,1,22.323-78.97l1.9,7.984Z" transform="translate(-32.077 -138.124)" fill="url(#linear-gradient-2)"/>
      <path id="Path_6896" data-name="Path 6896" d="M199.1,355A24.526,24.526,0,0,0,185.05,396.63l-5.807,5.769a32.7,32.7,0,0,1,0-46.243,32.614,32.614,0,0,1,18.785-9.283l1.056,8.112Z" transform="translate(-42.692 -148)" fill="url(#linear-gradient-2)"/>
      <path id="Path_6899" data-name="Path 6899" d="M434.455,306.373a75.581,75.581,0,0,1-20.464,37.595l-.013.013a75.58,75.58,0,0,1-37.595,20.464l-1.706-8.023a67.253,67.253,0,0,0,51.757-51.757Z" transform="translate(-130.026 -130.02)" fill="url(#linear-gradient-2)"/>
      <path id="Path_6900" data-name="Path 6900" d="M418.958,304.051a61.356,61.356,0,0,1-44.916,44.916l-1.924-7.96a53.481,53.481,0,0,0,33.61-25.509,52.388,52.388,0,0,0,5.285-13.386l7.96,1.924Z" transform="translate(-128.937 -128.932)" fill="url(#linear-gradient-2)"/>
      <path id="Path_6901" data-name="Path 6901" d="M402.44,297.62a46.888,46.888,0,0,1-22.783,30.117,46.191,46.191,0,0,1-12.023,4.7l-1.886-7.984a38.66,38.66,0,0,0,28.7-28.718l7.984,1.886Z" transform="translate(-126.223 -126.215)" fill="url(#linear-gradient-2)"/>
      <path id="Path_6902" data-name="Path 6902" d="M384.836,286.794a31.98,31.98,0,0,1-3.094,10.164,32.673,32.673,0,0,1-24.987,17.917l-1.056-8.112a24.4,24.4,0,0,0,7.6-2.318,24.853,24.853,0,0,0,11.092-11.092,24.356,24.356,0,0,0,2.318-7.6l8.112,1.056Z" transform="translate(-121.942 -121.961)" fill="url(#linear-gradient-2)"/>
      <path id="Path_6905" data-name="Path 6905" d="M477.5,480.717a75.638,75.638,0,0,1-106.953,0,79.013,79.013,0,0,1-7.106-8.227,75.256,75.256,0,0,1-5.859-9.13l7.182-3.91a67.246,67.246,0,0,0,11.576,15.46,67.439,67.439,0,0,0,95.349,0l5.807,5.807Z" transform="translate(-122.746 -195.958)" fill="url(#linear-gradient-2)"/>
      <path id="Path_6906" data-name="Path 6906" d="M472.52,456.2a61.344,61.344,0,0,1-102.89-28.6l7.96-1.962a53.138,53.138,0,0,0,89.123,24.745l5.807,5.807Z" transform="translate(-127.877 -181.551)" fill="url(#linear-gradient-2)"/>
      <path id="Path_6907" data-name="Path 6907" d="M472.669,443.368a46.958,46.958,0,0,1-78.934-22.236l7.96-1.886a38.808,38.808,0,0,0,65.167,18.312l5.807,5.807Z" transform="translate(-138.145 -178.831)" fill="url(#linear-gradient-2)"/>
      <path id="Path_6908" data-name="Path 6908" d="M472.421,428.933a32.7,32.7,0,0,1-46.243,0,32.026,32.026,0,0,1-6.188-8.6,32.613,32.613,0,0,1-3.094-10.112l8.112-1.094a24.512,24.512,0,0,0,41.606,14l5.807,5.807Z" transform="translate(-148.012 -174.522)" fill="url(#linear-gradient-2)"/>
      <path id="Path_6911" data-name="Path 6911" d="M533.35,287.59a74.314,74.314,0,0,1,9.119,5.859A75.62,75.62,0,0,1,550.7,407.507l-5.807-5.807a67.425,67.425,0,0,0,0-95.338,68.59,68.59,0,0,0-7.323-6.381,66.393,66.393,0,0,0-8.137-5.209l3.91-7.182Z" transform="translate(-195.951 -122.746)" fill="url(#linear-gradient-2)"/>
      <path id="Path_6912" data-name="Path 6912" d="M497.371,299.61A61.327,61.327,0,0,1,526.1,402.524l-5.807-5.807a53.181,53.181,0,0,0-11.475-83.85,51.626,51.626,0,0,0-13.386-5.3l1.924-7.96Z" transform="translate(-181.468 -127.866)" fill="url(#linear-gradient-2)"/>
      <path id="Path_6913" data-name="Path 6913" d="M490.962,323.66A47.013,47.013,0,0,1,513.3,402.63l-5.807-5.807A38.853,38.853,0,0,0,499,335.5a38.14,38.14,0,0,0-9.908-3.859l1.886-7.984Z" transform="translate(-178.767 -138.111)" fill="url(#linear-gradient-2)"/>
      <path id="Path_6914" data-name="Path 6914" d="M480.116,346.89A32.705,32.705,0,0,1,498.9,402.429l-5.807-5.807a24.522,24.522,0,0,0,.013-34.642,24.793,24.793,0,0,0-6.458-4.648,24.389,24.389,0,0,0-7.59-2.318l1.056-8.112Z" transform="translate(-174.494 -148.008)" fill="url(#linear-gradient-2)"/>
      <path id="Path_6917" data-name="Path 6917" d="M134.421,183.413a76.931,76.931,0,0,1-9.13-5.859,74.473,74.473,0,0,1-8.215-7.119A75.606,75.606,0,0,1,117.063,63.5L122.87,69.3a67.426,67.426,0,0,0,0,95.338,65.387,65.387,0,0,0,7.323,6.368,68.137,68.137,0,0,0,8.137,5.222l-3.91,7.182Z" transform="translate(-10.849 -27.282)" fill="url(#linear-gradient-2)"/>
      <path id="Path_6918" data-name="Path 6918" d="M166.394,183.98a60.92,60.92,0,0,1-15.384-6.126,62.075,62.075,0,0,1-13.22-10.036,61.336,61.336,0,0,1,0-86.728L143.6,86.9a53.13,53.13,0,0,0,0,75.114,53.588,53.588,0,0,0,11.411,8.724,52.841,52.841,0,0,0,13.334,5.285l-1.962,7.96Z" transform="translate(-21.464 -34.777)" fill="url(#linear-gradient-2)"/>
      <path id="Path_6919" data-name="Path 6919" d="M180.771,177.689a47,47,0,0,1-22.236-78.934l5.807,5.807a38.811,38.811,0,0,0,18.312,65.167l-1.886,7.96Z" transform="translate(-32.086 -42.302)" fill="url(#linear-gradient-2)"/>
      <path id="Path_6920" data-name="Path 6920" d="M197.968,171.91A32.694,32.694,0,0,1,179.259,116.4l5.807,5.807a24.5,24.5,0,0,0,14,41.606l-1.094,8.112Z" transform="translate(-42.699 -49.817)" fill="url(#linear-gradient-2)"/>
      <path id="Path_6923" data-name="Path 6923" d="M246.213,68.33a65.79,65.79,0,0,0-11.59-15.46,67.426,67.426,0,0,0-95.338,0l-5.807-5.807A75.553,75.553,0,0,1,247.536,55.29a74.119,74.119,0,0,1,5.859,9.119l-7.182,3.91Z" transform="translate(-27.276 -10.847)" fill="url(#linear-gradient-2)"/>
      <path id="Path_6924" data-name="Path 6924" d="M246.049,98.452a52.694,52.694,0,0,0-5.285-13.386A53.161,53.161,0,0,0,156.9,73.591l-5.807-5.807a61.337,61.337,0,0,1,86.728,0,61.173,61.173,0,0,1,16.186,28.729l-7.96,1.924Z" transform="translate(-34.781 -21.459)" fill="url(#linear-gradient-2)"/>
      <path id="Path_6925" data-name="Path 6925" d="M239.748,112.736a38.515,38.515,0,0,0-3.845-9.922,39.159,39.159,0,0,0-6.458-8.493,38.785,38.785,0,0,0-54.875,0l-5.807-5.807a46.989,46.989,0,0,1,78.97,22.323l-7.984,1.886Z" transform="translate(-42.308 -32.075)" fill="url(#linear-gradient-2)"/>
      <path id="Path_6926" data-name="Path 6926" d="M233.78,129.107a24.51,24.51,0,0,0-41.609-14.034l-5.807-5.807a32.7,32.7,0,0,1,55.54,18.8l-8.112,1.056Z" transform="translate(-49.806 -42.7)" fill="url(#linear-gradient-2)"/>
      <g id="Icons_x2F_icon-24_x2F_networks_x2F_binance_x5F_smart_x5F_chain" transform="translate(230.462 137.872) rotate(45)">
        <path id="Combined-Shape" d="M22.194,18.526l3.616,3.605L15.98,31.951,6.162,22.132l3.616-3.605,6.2,6.2ZM15.98,12.313l3.668,3.668h0L15.98,19.648l-3.657-3.657v-.01h0l.644-.644.312-.312Zm-12.365.052L7.232,15.98,3.616,19.586,0,15.97Zm24.729,0,3.616,3.616-3.616,3.605L24.729,15.97ZM15.98,0,25.8,9.819l-3.616,3.616-6.2-6.213-6.2,6.2L6.162,9.819Z" transform="translate(0 0)" stroke="rgba(0,0,0,0)" stroke-miterlimit="10" stroke-width="1" fill-rule="evenodd" fill="url(#linear-gradient-2)"/>
      </g>
      <g id="Icons_x2F_icon-24_x2F_networks_x2F_binance_x5F_smart_x5F_chain-2" data-name="Icons_x2F_icon-24_x2F_networks_x2F_binance_x5F_smart_x5F_chain" transform="translate(142.762 216.216)">
        <path id="Combined-Shape-2" data-name="Combined-Shape" d="M264.894,161.026l3.616,3.605-9.829,9.819-9.819-9.819,3.616-3.605,6.2,6.2Zm-6.213-6.213,3.668,3.668h0l-3.668,3.668-3.657-3.657v-.01h0l.644-.644.312-.312Zm-12.365.052,3.616,3.616-3.616,3.605L242.7,158.47Zm24.729,0,3.616,3.616-3.616,3.605-3.616-3.616ZM258.68,142.5l9.819,9.819-3.616,3.616-6.2-6.213-6.2,6.2-3.616-3.606Z" transform="translate(-242.7 -142.5)" stroke="rgba(0,0,0,0)" stroke-miterlimit="10" stroke-width="1" fill-rule="evenodd" fill="url(#linear-gradient-2)"/>
      </g>
      <g id="Icons_x2F_icon-24_x2F_networks_x2F_binance_x5F_smart_x5F_chain-3" data-name="Icons_x2F_icon-24_x2F_networks_x2F_binance_x5F_smart_x5F_chain" transform="translate(278.895 89.448) rotate(-45)">
        <path id="Combined-Shape-3" data-name="Combined-Shape" d="M22.194,18.526l3.616,3.605L15.98,31.951,6.162,22.132l3.616-3.605,6.2,6.2ZM15.98,12.313l3.668,3.668h0L15.98,19.648l-3.657-3.657v-.01h0l.644-.644.312-.312Zm-12.365.052L7.232,15.98,3.616,19.586,0,15.97Zm24.729,0,3.616,3.616-3.616,3.605L24.729,15.97ZM15.98,0,25.8,9.819l-3.616,3.616-6.2-6.213-6.2,6.2L6.162,9.819Z" transform="translate(0 0)" stroke="rgba(0,0,0,0)" stroke-miterlimit="10" stroke-width="1" fill-rule="evenodd" fill="url(#linear-gradient-2)"/>
      </g>
      <g id="Group_12995" data-name="Group 12995" transform="matrix(-0.087, -0.996, 0.996, -0.087, 143.195, 105.156)">
        <path id="Path_6927" data-name="Path 6927" d="M19.077,24.16a9.616,9.616,0,1,0-13.6-13.6L0,5.082A17.363,17.363,0,0,1,24.555,29.637Z" transform="matrix(0.998, -0.07, 0.07, 0.998, 0, 2.067)" fill="url(#linear-gradient)"/>
      </g>
      <g id="Group_12996" data-name="Group 12996" transform="matrix(-0.087, 0.996, -0.996, -0.087, 319.071, 220.054)">
        <path id="Path_6927-2" data-name="Path 6927" d="M19.077,24.16a9.616,9.616,0,1,0-13.6-13.6L0,5.082A17.363,17.363,0,0,1,24.555,29.637Z" transform="translate(0 0)" fill="url(#linear-gradient)"/>
      </g>
    </g>
    <g id="Ellipse_209" data-name="Ellipse 209" transform="translate(29 29)" fill="none" stroke="#bb9e4f" stroke-width="1" stroke-dasharray="340 201">
      <circle cx="221" cy="221" r="221" stroke="none"/>
      <circle cx="221" cy="221" r="220.5" fill="none"/>
    </g>
    <g id="Group_12997" data-name="Group 12997">
      <path id="Path_6939" data-name="Path 6939" d="M1.106-10.759H3.193l3.091,9.1,3.069-9.1h2.065V0H10.034V-6.35q0-.33.015-1.091t.015-1.633L6.995,0H5.552L2.461-9.075v.33q0,.4.018,1.2T2.5-6.35V0H1.106Z" transform="matrix(-0.609, -0.793, 0.793, -0.609, 80.858, 382.563)" stroke="rgba(0,0,0,0)" stroke-miterlimit="10" stroke-width="1" fill="url(#linear-gradient)"/>
      <path id="Path_6938" data-name="Path 6938" d="M6.665-4.409,5.032-9.163,3.3-4.409Zm-2.4-6.35H5.918L9.822,0h-1.6L7.134-3.223H2.878L1.714,0H.22Z" transform="matrix(-0.565, -0.825, 0.825, -0.565, 69.268, 366.289)" stroke="rgba(0,0,0,0)" stroke-miterlimit="10" stroke-width="1" fill="url(#linear-gradient)"/>
      <path id="Path_6937" data-name="Path 6937" d="M2.095-3.472a2.94,2.94,0,0,0,.432,1.487A2.864,2.864,0,0,0,5.083-.916,4.524,4.524,0,0,0,6.577-1.15a1.66,1.66,0,0,0,1.3-1.626,1.4,1.4,0,0,0-.549-1.252,5.547,5.547,0,0,0-1.743-.637L4.131-5a6.6,6.6,0,0,1-2.021-.71A2.251,2.251,0,0,1,1.084-7.72a3.1,3.1,0,0,1,1-2.38,4.026,4.026,0,0,1,2.842-.93,4.936,4.936,0,0,1,2.875.817A2.947,2.947,0,0,1,8.987-7.6H7.617a2.7,2.7,0,0,0-.469-1.326,2.723,2.723,0,0,0-2.263-.842,2.618,2.618,0,0,0-1.853.542,1.7,1.7,0,0,0-.564,1.26,1.23,1.23,0,0,0,.659,1.157,9.673,9.673,0,0,0,1.956.586l1.509.344A4.623,4.623,0,0,1,8.276-5.2,2.551,2.551,0,0,1,9.3-3.01,2.734,2.734,0,0,1,8-.454,5.822,5.822,0,0,1,4.98.315,4.518,4.518,0,0,1,1.838-.71,3.46,3.46,0,0,1,.725-3.472Z" transform="matrix(-0.519, -0.855, 0.855, -0.519, 60.004, 351.525)" stroke="rgba(0,0,0,0)" stroke-miterlimit="10" stroke-width="1" fill="url(#linear-gradient)"/>
      <path id="Path_6936" data-name="Path 6936" d="M8.972-10.759v1.282H5.347V0H3.867V-9.478H.242v-1.282Z" transform="translate(53.788 337.524) rotate(-108.23)" stroke="rgba(0,0,0,0)" stroke-miterlimit="10" stroke-width="1" fill="url(#linear-gradient)"/>
      <path id="Path_6935" data-name="Path 6935" d="M1.282-10.759H9.126v1.318H2.7v3.267h5.94v1.245H2.7v3.647H9.236V0H1.282Z" transform="translate(47.471 322.82) rotate(-112.16)" stroke="rgba(0,0,0,0)" stroke-miterlimit="10" stroke-width="1" fill="url(#linear-gradient)"/>
      <path id="Path_6934" data-name="Path 6934" d="M6.145-5.83a2.825,2.825,0,0,0,1.622-.41,1.67,1.67,0,0,0,.6-1.479,1.587,1.587,0,0,0-.835-1.567,2.729,2.729,0,0,0-1.194-.22H2.776V-5.83ZM1.318-10.759H6.3a4.967,4.967,0,0,1,2.029.359A2.541,2.541,0,0,1,9.844-7.859a2.858,2.858,0,0,1-.4,1.582,2.884,2.884,0,0,1-1.117.989,2.2,2.2,0,0,1,.948.674,2.42,2.42,0,0,1,.355,1.355l.051,1.443a4.436,4.436,0,0,0,.1.916.9.9,0,0,0,.469.659V0H8.467A1.344,1.344,0,0,1,8.35-.359a6.889,6.889,0,0,1-.073-.85L8.188-3A1.508,1.508,0,0,0,7.4-4.417a3.241,3.241,0,0,0-1.311-.2H2.776V0H1.318Z" transform="translate(41.152 307.474) rotate(-102.03)" stroke="rgba(0,0,0,0)" stroke-miterlimit="10" stroke-width="1" fill="url(#linear-gradient)"/>
      <path id="Path_6933" data-name="Path 6933" d="M1.282-10.759H6.123a3.282,3.282,0,0,1,2.314.809,2.937,2.937,0,0,1,.879,2.274,3.306,3.306,0,0,1-.784,2.194,2.969,2.969,0,0,1-2.41.934H2.739V0H1.282ZM7.844-7.668A1.619,1.619,0,0,0,6.965-9.28,3.173,3.173,0,0,0,5.64-9.507h-2.9v3.728h2.9A2.772,2.772,0,0,0,7.233-6.2,1.654,1.654,0,0,0,7.844-7.668Z" transform="matrix(-0.156, -0.988, 0.988, -0.156, 37.163, 290.27)" stroke="rgba(0,0,0,0)" stroke-miterlimit="10" stroke-width="1" fill="url(#linear-gradient)"/>
      <path id="Path_6932" data-name="Path 6932" d="M1.472-10.759H2.944V0H1.472Z" transform="translate(34.74 275.291) rotate(-90.92)" stroke="rgba(0,0,0,0)" stroke-miterlimit="10" stroke-width="1" fill="url(#linear-gradient)"/>
      <path id="Path_6931" data-name="Path 6931" d="M1.282-10.759H9.126v1.318H2.7v3.267h5.94v1.245H2.7v3.647H9.236V0H1.282Z" transform="translate(33.745 265.118) rotate(-87.66)" stroke="rgba(0,0,0,0)" stroke-miterlimit="10" stroke-width="1" fill="url(#linear-gradient)"/>
      <path id="Path_6930" data-name="Path 6930" d="M5.676-11.052A4.409,4.409,0,0,1,8.848-9.976,3.8,3.8,0,0,1,10.1-7.529H8.679a2.957,2.957,0,0,0-.963-1.648,3.053,3.053,0,0,0-2.025-.608A3.247,3.247,0,0,0,3.124-8.668a5.091,5.091,0,0,0-.978,3.424,4.973,4.973,0,0,0,.883,3.065A3.084,3.084,0,0,0,5.662-1,2.782,2.782,0,0,0,8.115-2.241a4.707,4.707,0,0,0,.667-1.714H10.2a4.855,4.855,0,0,1-1.26,2.849A4.483,4.483,0,0,1,5.486.278,4.563,4.563,0,0,1,2.336-.857,5.915,5.915,0,0,1,.659-5.493a5.922,5.922,0,0,1,1.26-3.9A4.6,4.6,0,0,1,5.676-11.052Z" transform="translate(33.979 248.656) rotate(-82.53)" stroke="rgba(0,0,0,0)" stroke-miterlimit="10" stroke-width="1" fill="url(#linear-gradient)"/>
      <path id="Path_6929" data-name="Path 6929" d="M1.282-10.759H9.126v1.318H2.7v3.267h5.94v1.245H2.7v3.647H9.236V0H1.282Z" transform="translate(35.505 233.138) rotate(-78.47)" fill="url(#linear-gradient)"/>
    </g>
    <g id="Group_12998" data-name="Group 12998" transform="translate(280.865 600.975) rotate(-140)">
      <path id="Path_6939-2" data-name="Path 6939" d="M1.106-10.759H3.193l3.091,9.1,3.069-9.1h2.065V0H10.034V-6.35q0-.33.015-1.091t.015-1.633L6.995,0H5.552L2.461-9.075v.33q0,.4.018,1.2T2.5-6.35V0H1.106Z" transform="matrix(-0.609, -0.793, 0.793, -0.609, 80.858, 382.563)" stroke="rgba(0,0,0,0)" stroke-miterlimit="10" stroke-width="1" fill="url(#linear-gradient)"/>
      <path id="Path_6938-2" data-name="Path 6938" d="M6.665-4.409,5.032-9.163,3.3-4.409Zm-2.4-6.35H5.918L9.822,0h-1.6L7.134-3.223H2.878L1.714,0H.22Z" transform="matrix(-0.565, -0.825, 0.825, -0.565, 69.268, 366.289)" stroke="rgba(0,0,0,0)" stroke-miterlimit="10" stroke-width="1" fill="url(#linear-gradient)"/>
      <path id="Path_6937-2" data-name="Path 6937" d="M2.095-3.472a2.94,2.94,0,0,0,.432,1.487A2.864,2.864,0,0,0,5.083-.916,4.524,4.524,0,0,0,6.577-1.15a1.66,1.66,0,0,0,1.3-1.626,1.4,1.4,0,0,0-.549-1.252,5.547,5.547,0,0,0-1.743-.637L4.131-5a6.6,6.6,0,0,1-2.021-.71A2.251,2.251,0,0,1,1.084-7.72a3.1,3.1,0,0,1,1-2.38,4.026,4.026,0,0,1,2.842-.93,4.936,4.936,0,0,1,2.875.817A2.947,2.947,0,0,1,8.987-7.6H7.617a2.7,2.7,0,0,0-.469-1.326,2.723,2.723,0,0,0-2.263-.842,2.618,2.618,0,0,0-1.853.542,1.7,1.7,0,0,0-.564,1.26,1.23,1.23,0,0,0,.659,1.157,9.673,9.673,0,0,0,1.956.586l1.509.344A4.623,4.623,0,0,1,8.276-5.2,2.551,2.551,0,0,1,9.3-3.01,2.734,2.734,0,0,1,8-.454,5.822,5.822,0,0,1,4.98.315,4.518,4.518,0,0,1,1.838-.71,3.46,3.46,0,0,1,.725-3.472Z" transform="matrix(-0.519, -0.855, 0.855, -0.519, 60.004, 351.525)" stroke="rgba(0,0,0,0)" stroke-miterlimit="10" stroke-width="1" fill="url(#linear-gradient)"/>
      <path id="Path_6936-2" data-name="Path 6936" d="M8.972-10.759v1.282H5.347V0H3.867V-9.478H.242v-1.282Z" transform="translate(53.788 337.524) rotate(-108.23)" stroke="rgba(0,0,0,0)" stroke-miterlimit="10" stroke-width="1" fill="url(#linear-gradient)"/>
      <path id="Path_6935-2" data-name="Path 6935" d="M1.282-10.759H9.126v1.318H2.7v3.267h5.94v1.245H2.7v3.647H9.236V0H1.282Z" transform="translate(47.471 322.82) rotate(-112.16)" stroke="rgba(0,0,0,0)" stroke-miterlimit="10" stroke-width="1" fill="url(#linear-gradient)"/>
      <path id="Path_6934-2" data-name="Path 6934" d="M6.145-5.83a2.825,2.825,0,0,0,1.622-.41,1.67,1.67,0,0,0,.6-1.479,1.587,1.587,0,0,0-.835-1.567,2.729,2.729,0,0,0-1.194-.22H2.776V-5.83ZM1.318-10.759H6.3a4.967,4.967,0,0,1,2.029.359A2.541,2.541,0,0,1,9.844-7.859a2.858,2.858,0,0,1-.4,1.582,2.884,2.884,0,0,1-1.117.989,2.2,2.2,0,0,1,.948.674,2.42,2.42,0,0,1,.355,1.355l.051,1.443a4.436,4.436,0,0,0,.1.916.9.9,0,0,0,.469.659V0H8.467A1.344,1.344,0,0,1,8.35-.359a6.889,6.889,0,0,1-.073-.85L8.188-3A1.508,1.508,0,0,0,7.4-4.417a3.241,3.241,0,0,0-1.311-.2H2.776V0H1.318Z" transform="translate(41.152 307.474) rotate(-102.03)" stroke="rgba(0,0,0,0)" stroke-miterlimit="10" stroke-width="1" fill="url(#linear-gradient)"/>
      <path id="Path_6933-2" data-name="Path 6933" d="M1.282-10.759H6.123a3.282,3.282,0,0,1,2.314.809,2.937,2.937,0,0,1,.879,2.274,3.306,3.306,0,0,1-.784,2.194,2.969,2.969,0,0,1-2.41.934H2.739V0H1.282ZM7.844-7.668A1.619,1.619,0,0,0,6.965-9.28,3.173,3.173,0,0,0,5.64-9.507h-2.9v3.728h2.9A2.772,2.772,0,0,0,7.233-6.2,1.654,1.654,0,0,0,7.844-7.668Z" transform="matrix(-0.156, -0.988, 0.988, -0.156, 37.163, 290.27)" stroke="rgba(0,0,0,0)" stroke-miterlimit="10" stroke-width="1" fill="url(#linear-gradient)"/>
      <path id="Path_6932-2" data-name="Path 6932" d="M1.472-10.759H2.944V0H1.472Z" transform="translate(34.74 275.291) rotate(-90.92)" stroke="rgba(0,0,0,0)" stroke-miterlimit="10" stroke-width="1" fill="url(#linear-gradient)"/>
      <path id="Path_6931-2" data-name="Path 6931" d="M1.282-10.759H9.126v1.318H2.7v3.267h5.94v1.245H2.7v3.647H9.236V0H1.282Z" transform="translate(33.745 265.118) rotate(-87.66)" stroke="rgba(0,0,0,0)" stroke-miterlimit="10" stroke-width="1" fill="url(#linear-gradient)"/>
      <path id="Path_6930-2" data-name="Path 6930" d="M5.676-11.052A4.409,4.409,0,0,1,8.848-9.976,3.8,3.8,0,0,1,10.1-7.529H8.679a2.957,2.957,0,0,0-.963-1.648,3.053,3.053,0,0,0-2.025-.608A3.247,3.247,0,0,0,3.124-8.668a5.091,5.091,0,0,0-.978,3.424,4.973,4.973,0,0,0,.883,3.065A3.084,3.084,0,0,0,5.662-1,2.782,2.782,0,0,0,8.115-2.241a4.707,4.707,0,0,0,.667-1.714H10.2a4.855,4.855,0,0,1-1.26,2.849A4.483,4.483,0,0,1,5.486.278,4.563,4.563,0,0,1,2.336-.857,5.915,5.915,0,0,1,.659-5.493a5.922,5.922,0,0,1,1.26-3.9A4.6,4.6,0,0,1,5.676-11.052Z" transform="translate(33.979 248.656) rotate(-82.53)" stroke="rgba(0,0,0,0)" stroke-miterlimit="10" stroke-width="1" fill="url(#linear-gradient)"/>
      <path id="Path_6929-2" data-name="Path 6929" d="M1.282-10.759H9.126v1.318H2.7v3.267h5.94v1.245H2.7v3.647H9.236V0H1.282Z" transform="translate(35.505 233.138) rotate(-78.47)" fill="url(#linear-gradient)"/>
    </g>
  </g>
</svg>
